<?xml version="1.0" encoding="UTF-8" standalone="no"?>
<svg
   width="1e3"
   height="1e3"
   version="1.1"
   viewBox="0 0 1e3 1e3"
   xml:space="preserve"
   id="svg16"
   xmlns:xlink="http://www.w3.org/1999/xlink"
   xmlns="http://www.w3.org/2000/svg"
   xmlns:svg="http://www.w3.org/2000/svg"><defs
     id="defs7"><linearGradient
       id="linearGradient1"><stop
         style="stop-color:#fff6d9;stop-opacity:1;"
         offset="0"
         id="stop7" /><stop
         style="stop-color:#ffd772;stop-opacity:1;"
         offset="1"
         id="stop8" /></linearGradient><linearGradient
       id="linearGradient16"><stop
         style="stop-color:#fff6d9;stop-opacity:1;"
         offset="0"
         id="stop16" /><stop
         style="stop-color:#ffd670;stop-opacity:1;"
         offset="1"
         id="stop17" /></linearGradient><linearGradient
       id="c"
       x1="500"
       x2="500"
       y2="1e3"
       gradientUnits="userSpaceOnUse"><stop
         stop-color="#fde07a"
         offset="0"
         id="stop1" /><stop
         stop-color="#cc7a33"
         offset="1"
         id="stop2" /></linearGradient><linearGradient
       id="b"
       x1="49"
       x2="951"
       y1="45"
       y2="955"
       gradientUnits="userSpaceOnUse"><stop
         stop-color="#002272"
         offset="0"
         id="stop3" /><stop
         stop-color="#00759b"
         offset="1"
         id="stop4" /></linearGradient><linearGradient
       id="a"
       x1="108"
       x2="108"
       y1="13"
       y2="197"
       gradientUnits="userSpaceOnUse"><stop
         stop-color="#fff6da"
         offset="0"
         id="stop5" /><stop
         stop-color="#ffd66f"
         offset="1"
         id="stop6" /></linearGradient><filter
       id="d"
       x="-0.014661594"
       y="-0.014422289"
       width="1.0493163"
       height="1.0501502"
       color-interpolation-filters="sRGB"><feFlood
         flood-color="rgb(0,0,0)"
         flood-opacity=".35"
         result="flood"
         id="feFlood6" /><feComposite
         in="flood"
         in2="SourceGraphic"
         operator="in"
         result="composite1"
         id="feComposite6" /><feGaussianBlur
         in="composite1"
         result="blur"
         stdDeviation="1.1"
         id="feGaussianBlur6" /><feOffset
         dx="3.6"
         dy="3.9"
         result="offset"
         id="feOffset6" /><feComposite
         in="SourceGraphic"
         in2="offset"
         result="composite2"
         id="feComposite7" /></filter><linearGradient
       xlink:href="#linearGradient16"
       id="linearGradient17"
       x1="27.658691"
       y1="-31.007599"
       x2="27.658691"
       y2="650.0127"
       gradientUnits="userSpaceOnUse"
       gradientTransform="translate(462.60608,182.31991)" /><filter
       style="color-interpolation-filters:sRGB;"
       id="filter37"
       x="-0.01111711"
       y="-0.010982265"
       width="1.0508243"
       height="1.0456889"><feFlood
         result="flood"
         in="SourceGraphic"
         flood-opacity="0.349020"
         flood-color="rgb(0,0,0)"
         id="feFlood36" /><feGaussianBlur
         result="blur"
         in="SourceGraphic"
         stdDeviation="3.154574"
         id="feGaussianBlur36" /><feOffset
         result="offset"
         in="blur"
         dx="19.470406"
         dy="16.355141"
         id="feOffset36" /><feComposite
         result="comp1"
         operator="in"
         in="flood"
         in2="offset"
         id="feComposite36" /><feComposite
         result="comp2"
         operator="over"
         in="SourceGraphic"
         in2="comp1"
         id="feComposite37" /></filter><linearGradient
       xlink:href="#linearGradient1"
       id="linearGradient8"
       x1="942.07715"
       y1="120.6391"
       x2="942.07715"
       y2="920.6391"
       gradientUnits="userSpaceOnUse"
       gradientTransform="matrix(0.94256567,0,0,0.94256567,-387.96953,50.229213)" /><filter
       style="color-interpolation-filters:sRGB;"
       id="filter16"
       x="-0.010821528"
       y="-0.010690268"
       width="1.0455141"
       height="1.0402457"><feFlood
         result="flood"
         in="SourceGraphic"
         flood-opacity="0.349020"
         flood-color="rgb(0,0,0)"
         id="feFlood15" /><feGaussianBlur
         result="blur"
         in="SourceGraphic"
         stdDeviation="3.400000"
         id="feGaussianBlur15" /><feOffset
         result="offset"
         in="blur"
         dx="18.000000"
         dy="14.400000"
         id="feOffset15" /><feComposite
         result="comp1"
         operator="in"
         in="flood"
         in2="offset"
         id="feComposite15" /><feComposite
         result="comp2"
         operator="over"
         in="SourceGraphic"
         in2="comp1"
         id="feComposite16" /></filter></defs><path
     d="m 162,0 h 676 a 162,162 45 0 1 162,162 V 838 A 162,162 135 0 1 838,1000 H 162 A 162,162 45 0 1 0,838 V 162 A 162,162 135 0 1 162,0 Z"
     fill="url(#c)"
     stroke-opacity="0.43"
     stroke-width="1.4"
     id="path7"
     style="display:inline" /><path
     transform="matrix(0.99,0,0,0.98,4.7,9.4)"
     d="M 191,45 H 809 A 142,142 45 0 1 951,187 V 812 A 142,142 135 0 1 809,954 H 191 A 142,142 45 0 1 49,812 V 187 A 142,142 135 0 1 191,45 Z"
     color="#000000"
     color-rendering="auto"
     dominant-baseline="auto"
     fill="url(#b)"
     image-rendering="auto"
     shape-rendering="auto"
     solid-color="#000000"
     stop-color="#000000"
     style="font-variant-ligatures:normal;font-variant-position:normal;font-variant-caps:normal;font-variant-numeric:normal;font-variant-alternates:normal;font-variant-east-asian:normal;font-feature-settings:normal;font-variation-settings:normal;text-indent:0;text-decoration-line:none;text-decoration-style:solid;text-decoration-color:#000000;text-transform:none;text-orientation:mixed;white-space:normal;shape-padding:0;shape-margin:0;inline-size:0;display:inline;isolation:auto;mix-blend-mode:normal;-inkscape-stroke:none"
     id="path8" /><path
     d="m 600.50267,470.83277 c -6.13121,-13.29813 13.71282,-18.51812 23.40616,-19.80244 24.0276,-2.98277 51.32808,14.12642 48.67673,40.63997 -0.53877,5.17841 -3.85273,9.03115 -9.27974,9.27974 -4.68135,0.2068 -9.77696,-4.43275 -9.27975,-9.27974 0.2068,-1.82276 0.24818,-3.68708 0.0848,-5.50984 -1.40848,-9.61116 -11.0201,-15.28665 -20.17468,-16.5296 0.33084,-0.0424 -0.62152,-0.16545 -0.99374,-0.28953 0.0424,0.0424 0.0848,0.0424 0.12404,0.0424 -6.91834,-0.74556 -14.16771,0.53875 -19.84374,4.72269 -4.267,2.94131 -10.14974,0.62148 -12.67666,-3.31419 z m 32.5204,-1.36714 c 0.37335,0.2068 0.74557,0.24816 0.91099,0.2068 -0.33084,-0.0848 -0.62144,-0.16544 -0.91099,-0.2068 z M 360.59111,458.9845 c 0.12408,0.0848 0.24817,0.20681 0.45604,0.28953 -0.16545,-0.12409 -0.28953,-0.20681 -0.45604,-0.28953 z m -13.3395,-3.27273 c 3.06561,-0.82828 6.25551,-0.33088 9.15546,0.82829 -0.86965,-0.41467 0.20679,0.0848 0.74556,0.2068 -0.12409,-0.0424 -0.20681,-0.0424 -0.33089,-0.0848 1.32567,0.62148 2.48569,1.44997 3.72844,2.27847 -0.53876,-0.4974 0.49739,0.33089 0.74556,0.45603 -0.12409,-0.0424 -0.16545,-0.12408 -0.24817,-0.16544 8.49261,7.62264 10.10824,16.81913 6.79404,26.51354 -1.57426,4.59841 1.7814,10.35684 6.46273,11.39235 5.13695,1.15991 9.73546,-1.57427 11.39235,-6.46273 10.10823,-26.76172 -14.12642,-60.44241 -43.41647,-52.90302 -11.68293,3.47985 -6.91834,20.71345 4.92983,17.89665 z m 9.52834,0.95237 c -0.12408,-0.0424 -0.24816,-0.0848 -0.37331,-0.12408 0.12408,0.0424 0.24817,0.0848 0.41467,0.12408 -0.0424,0 -0.0424,0 -0.0424,-0.0424 z m 99.219,-90.35286 c 4.97129,-0.20681 9.36253,-4.10133 9.27978,-9.27975 -0.16552,-2.56852 0.37325,-5.13705 1.2013,-7.49835 4.9299,-10.64677 18.22865,-14.49973 29.20634,-13.3395 -0.12414,-0.0424 -0.16552,-0.0424 -0.28956,-0.12408 4.18414,0.66285 8.40976,1.90569 11.76567,4.63988 10.5639,5.96554 19.59556,-9.23828 9.3625,-16.03221 -25.31194,-17.93801 -71.00641,-1.44998 -69.76346,32.355 0.0848,4.847 4.18416,9.48687 9.27974,9.27974 z M 495.64518,336.194 c 1.36719,0.53876 0.82832,0.16545 0,0 z m -45.19711,66.07707 c 5.63413,-10.72951 15.7013,-26.88686 48.38722,-26.09888 28.41939,0.95237 42.54572,23.86219 47.30973,35.50376 31.69215,7.37405 55.92655,58.99264 28.21248,83.84857 -15.12121,14.04369 -37.40844,21.459 -56.83867,14.74789 -18.39398,23.73812 -58.24705,20.25847 -71.79335,-13.7128 -55.26378,-10.89495 -40.18499,-91.51311 4.7227,-94.24718 z m 5.05412,15.57724 c -35.62784,-0.66284 -40.3918,62.43092 -4.97129,63.0524 8.53407,-2.77566 16.19768,-12.67666 15.28669,-21.25221 -1.28425,-11.26825 -3.60418,-22.61923 -3.64565,-22.74331 -1.86422,-7.87124 9.07257,-13.04998 13.961,-6.58693 1.44994,1.73993 6.71116,6.87698 11.64153,7.53982 7.45692,1.07709 11.72429,-3.72844 12.30444,-4.39128 5.26121,-9.90111 15.5348,-18.93279 28.2125,-21.87368 -4.7642,-8.11971 -14.00229,-19.01551 -29.95182,-19.51184 -26.47214,-0.78692 -29.57959,9.94258 -35.95873,21.62551 -1.4085,2.52705 -4.05985,4.14269 -6.91833,4.14269 z m 83.80725,8.78256 c -13.50499,-2.02998 -31.73355,13.63009 -26.01623,25.6439 1.61565,1.6571 4.88852,1.98852 6.37985,2.02999 7.00128,-0.24817 10.81217,9.11408 5.55124,13.75416 -5.09551,4.76417 -8.11973,11.14417 -8.11973,17.15109 0.53877,21.58415 36.95357,9.27974 46.35734,-1.24285 19.01551,-19.26369 -3.02422,-54.68366 -24.15163,-57.33502 z m -34.21947,73.32693 c -6.17268,-9.11398 0.91099,-17.81393 -14.41702,-21.54173 -16.36416,-4.76417 -17.52333,9.32121 -29.12355,15.07984 6.17264,15.82541 32.47909,23.24072 43.54057,6.50409 z m -23.36479,-38.15512 c 7.70547,-0.7042 17.56461,1.6571 24.0276,5.96555 0.16542,-0.33089 0.28955,-0.7042 0.49739,-1.03615 -5.01275,-3.14853 -7.87127,-6.5041 -9.5283,-13.67145 -4.5984,1.20138 -10.77089,1.15992 -15.70135,-0.53875 0.41463,3.02424 0.95236,6.21414 0.74556,9.27974 z M 372.93476,825.78066 c -0.62147,2.73419 -1.61563,5.21988 -2.85848,7.58118 0.86964,1.36715 1.69856,2.89995 2.44423,4.68134 90.56074,34.88228 204.73764,28.87538 289.86734,-17.06836 1.6985,-0.95237 3.9355,0.41467 3.89412,2.3614 v 20.67208 c 0,33.97023 -76.30918,62.68015 -166.62165,62.68015 -49.46477,0 -101.2489,-9.15545 -133.72376,-25.22923 -7.12557,7.66411 -17.06836,11.47506 -25.47739,12.88346 -2.15418,35.13045 -58.28845,37.49228 -71.13055,7.29123 -48.13906,23.98628 -108.7904,-35.25453 -70.13682,-80.28621 -10.10824,-26.30673 18.55948,-57.33501 46.35735,-47.72438 3.72844,-5.50983 9.15545,-10.64678 15.90813,-14.87198 C 165.6352,674.2813 123.04595,551.98809 123.04595,495.89603 c -0.95236,-39.10749 7.0841,-70.55043 50.08622,-71.75202 -8.45126,-33.84614 25.80934,-69.47398 59.44867,-64.41945 -1.28421,-24.98106 18.68357,-45.81859 42.79499,-49.25686 -17.48198,-42.91908 30.24241,-81.32236 63.17648,-64.91683 10.23253,-6.42127 27.38319,-15.36938 55.09833,2.2371 12.4285,-11.72429 31.89898,-19.3464 48.30451,-17.48197 -12.22063,-31.19478 20.46527,-79.74745 60.77435,-62.10004 29.4958,-21.04539 65.6624,-1.94704 67.81635,28.04604 20.71345,5.21988 36.62151,25.80935 40.0598,47.43486 18.97422,-2.52707 40.35048,7.0841 53.81409,22.12185 15.99081,-0.95237 30.57325,9.3212 36.70426,23.98626 30.36645,0.95237 52.69621,21.08676 54.9742,58.95129 30.98798,-11.30961 64.99961,19.22232 61.93354,51.16267 173.79101,32.72725 -54.7674,565.43855 -445.09878,425.95605 z m -14.29292,36.45613 c 3.76991,-17.19244 -3.76991,-22.70195 -4.10133,-22.90983 -1.65709,-1.90569 -6.42126,-4.30845 -7.74694,-6.54555 -3.39702,-6.04838 1.40851,-12.51121 -4.1428,-19.96789 -8.40978,-13.58766 -30.7801,-12.71802 -37.49227,-2.2371 7.87123,0.86964 11.35098,10.93631 4.10133,15.28665 -2.77565,1.61562 -6.13121,4.10132 -6.83552,5.09559 -0.37331,1.11855 -0.66284,7.04263 1.40851,11.6002 0.95237,2.02998 2.65136,6.21414 4.14269,7.78841 3.64561,2.2371 4.84699,7.00127 2.69282,10.77086 -2.2371,3.85274 -7.12557,5.13706 -10.97873,2.85848 -14.78926,-7.20839 -23.48888,8.24402 -19.47048,21.79096 0.99372,4.0185 2.52705,8.11972 4.68133,11.39234 9.07262,14.78926 43.83008,13.29813 39.31428,-8.61691 -1.11855,-5.17841 3.56279,-10.1497 8.78257,-9.40403 1.69856,-0.0424 11.55778,-0.7042 18.6422,-6.17268 3.52132,-2.65135 5.79989,-6.17267 6.95981,-10.64678 z m -94.45399,23.98628 c -1.32568,-8.69974 -0.74556,-17.52334 3.27273,-24.69048 -5.46837,-6.95981 -11.64157,-4.43274 -18.76629,1.32568 -3.27273,2.85848 -8.28548,2.56852 -11.2269,-0.7042 -2.56852,-2.94131 -2.60988,-7.24976 -0.24816,-10.23254 1.61563,-7.16693 3.81137,-16.32279 -0.4974,-22.28834 -5.21988,-8.0369 -15.99084,-6.46273 -22.74332,-0.62148 -33.59797,29.57958 15.90813,78.25633 50.2103,57.21094 z m -50.79041,-75.23272 c 3.43849,-1.49144 6.95981,-2.3614 10.43976,-2.69283 2.11281,-5.92408 6.71122,-11.6002 14.16778,-14.66517 0.16545,-1.78139 0.58012,-3.52131 0.99373,-5.26124 -17.19244,-2.15417 -25.60254,10.10823 -25.60254,22.61924 z m -12.67666,-421.523 c -11.02009,11.43371 -13.13269,26.92823 -5.59266,41.51068 0.82828,1.6571 1.16002,3.47985 0.99373,5.21988 4.0185,-2.77565 8.32695,-5.46837 13.17405,-6.29697 2.89995,-28.62614 38.81796,-39.52215 58.95128,-23.48888 45.4877,-16.1563 71.54522,47.64167 40.59861,71.54522 0.78693,10.1497 0.53876,25.51876 -20.92131,39.52215 112.9265,19.22233 318.44886,18.7663 430.01791,-0.99373 -14.04366,-13.91961 -13.17405,-27.50833 -11.97247,-36.78807 -13.25681,-12.22063 -19.22231,-34.01158 -6.00697,-55.63709 6.79401,-14.16778 31.94034,-30.28378 52.94429,-18.6422 13.87834,-9.40405 30.49058,-9.65264 45.65317,-0.16545 7.12561,-29.24763 -24.64913,-52.48835 -46.772,-32.97649 -2.94127,2.56853 -7.24974,2.98278 -10.60546,1.07709 -3.39701,-1.90569 -5.26122,-5.79979 -4.5984,-9.61117 4.55711,-34.34353 -9.15543,-52.03231 -32.18956,-55.22241 -0.4974,7.70547 -2.94128,16.77777 -9.1969,27.17638 10.85364,6.75268 16.52959,18.97416 15.5348,34.38489 -1.5328,45.94268 -50.45846,61.22933 -79.49928,29.08219 -27.30048,25.72662 -70.50901,3.0656 -76.22642,-38.56873 -6.50406,-36.12418 30.40783,-67.52683 63.96345,-60.60785 6.2969,-16.03222 16.19761,-24.3596 24.0276,-28.66752 -10.14974,-6.66985 -17.68989,-11.47505 -34.75711,-8.20266 -10.35682,24.56641 -43.16725,39.43944 -68.02419,31.11207 -36.04155,27.05231 -87.99215,-1.03615 -85.29942,-40.18499 -14.08506,-9.44541 -29.53822,-4.14269 -35.87601,-1.15993 -4.30846,2.02999 -8.24402,4.68135 -11.7243,7.70548 10.39829,14.66518 10.39829,32.2723 9.03115,41.67612 23.57266,22.45379 18.18617,79.25111 -18.31132,86.54234 -19.71971,4.47422 -43.41646,-0.62147 -56.424,-16.15629 -28.29526,12.8421 -59.69684,-16.48825 -55.55437,-44.36884 -22.41243,-1.07708 -40.76511,17.64849 -33.1833,41.71749 2.2371,7.33269 -6.08984,14.29291 -12.92588,10.81221 -14.58246,-6.87697 -30.15969,-0.58011 -39.14885,8.74121 z m 97.97604,-76.22644 c 8.49261,1.90569 20.46528,-2.69283 23.98628,-10.5226 3.10708,-6.9598 6.66986,-16.32279 8.45125,-21.41763 1.86422,-6.37981 11.51642,-7.20841 14.45837,-1.24285 1.65709,4.26698 2.65135,11.64156 7.08409,15.03848 5.75843,4.5984 11.88974,2.73418 12.88347,2.40276 10.31547,-6.25549 23.65539,-8.07836 35.46241,-4.39128 0.62147,-11.4337 -5.7999,-27.46591 -17.85529,-33.14194 -21.12812,-12.1379 -29.04082,-5.26124 -40.10121,1.40851 -2.4857,1.49133 -5.59267,1.49133 -8.07836,0.0424 -31.15342,-18.47676 -66.15979,33.30739 -36.29069,51.82551 z m 37.24305,44.45156 c -0.91099,-11.14418 9.94259,-15.16258 -1.49132,-26.22403 -11.51643,-12.3044 -20.05061,-1.20138 -32.76863,-1.65709 -2.89994,16.65369 16.36416,36.12417 34.21944,27.88058 z m -0.7042,-45.03168 c 7.00128,3.31419 14.29293,10.35683 17.64848,17.31653 0.3309,-0.20681 0.62148,-0.41467 0.95237,-0.62148 -2.69282,-5.26124 -3.47985,-9.61116 -1.24285,-16.65368 -4.55704,-1.28422 -9.90111,-4.43276 -13.25677,-8.45115 -1.20139,2.81702 -2.3614,5.79979 -4.10133,8.36832 z m 59.15809,60.56649 c 24.89835,-7.04264 23.98628,-41.51067 12.92589,-57.16957 -8.53408,-13.29814 -37.74045,-11.72429 -40.05985,4.34991 0.53876,2.15418 3.14854,4.22563 4.34992,4.92983 6.2555,3.27273 4.88846,13.38086 -2.11281,14.7479 -6.79404,1.5328 -12.6353,5.50983 -15.70133,10.64678 -10.52258,18.84901 27.13503,26.76171 40.55725,22.49515 z M 466.8086,238.37937 c 6.95981,3.81138 3.81136,11.76566 3.85274,18.06209 -0.12404,8.69973 2.52711,17.81392 18.93285,27.92195 13.63006,8.32696 27.38313,4.30845 35.79327,0.12409 -9.03119,-9.4454 -12.71804,-22.70197 -11.64163,-33.80478 -0.16542,-0.99373 -1.28415,-7.24976 -7.8297,-10.3983 -4.4328,-2.11281 -11.7243,-0.7042 -13.961,-0.0424 -7.6641,2.56853 -13.67145,-7.70548 -7.95403,-13.21541 -0.28956,0.37331 9.694,-9.98406 15.5348,-17.027 4.97128,-6.71122 4.10129,-14.87198 1.16001,-22.82605 -7.29121,-12.01382 -29.91043,-9.23827 -40.3918,10.43977 -8.78255,16.23902 -5.38554,31.15341 6.46274,40.7651 z m 47.60032,-58.95128 c 6.42123,10.97873 0.4974,23.53131 15.36939,28.2539 14.66519,6.00701 14.83061,-5.63413 24.98108,-9.98405 -0.49738,-19.80244 -26.43084,-28.2539 -40.35047,-18.31132 z m 39.23157,44.36883 c -2.48574,6.46273 3.68711,15.57724 -3.18993,20.25847 -5.34416,3.85274 -8.82402,-1.36714 -14.37563,-1.90569 -3.0656,-0.53875 -6.17268,5.59267 -6.4627,9.36257 -1.73998,10.81223 5.88274,26.38948 19.2223,28.5848 17.73115,3.02424 45.90133,-9.94258 46.2333,-31.81627 0.70419,-18.76628 -32.76867,-56.34129 -41.38559,-24.52503 z m -45.40396,0.53875 c 5.09561,1.24285 10.23259,4.68134 13.42223,8.20266 5.38554,-5.13706 9.56968,-6.37979 15.49352,-6.25549 0.0848,-0.37332 0.16542,-0.74557 0.2068,-1.16003 -8.07835,-0.28953 -16.90294,-3.02424 -23.36479,-8.16119 -1.57427,2.65136 -3.72851,5.05412 -5.71704,7.33269 z m 123.37288,87.57744 c -1.16002,4.55704 -6.58694,7.16693 -10.85365,5.13706 -22.74326,-7.62266 -53.60719,8.32694 -50.12753,41.42688 2.5685,20.38256 17.56472,33.1833 31.02936,35.21318 5.75842,0.911 16.11495,0.58011 21.62547,-11.35098 2.36141,-5.55131 10.60547,-6.21415 13.83687,-1.11856 18.60087,29.24762 56.09312,24.15172 57.58426,-12.26198 1.98853,-20.29984 -15.57722,-26.51355 -31.98163,-21.79096 -8.78264,2.56853 -15.82549,8.11983 -17.85531,14.08506 -1.24287,3.81126 -5.21993,6.04838 -9.07266,5.30271 -3.9355,-0.74556 -6.66979,-4.30845 -6.42123,-8.28549 0.53877,-15.24529 -6.66988,-18.39403 -12.84208,-19.76107 -10.60547,-4.05986 -4.47427,-18.84902 6.04835,-14.95577 10.85355,1.6571 20.05063,-9.61115 20.13329,-9.73545 4.30847,-5.75843 14.20918,-2.48571 14.20918,4.7227 0.0848,3.27273 2.65134,8.57543 6.17268,12.34576 5.63409,-1.03614 11.22689,-1.28421 16.40554,-0.62147 32.43774,-48.18042 -33.80484,-71.37978 -47.97263,-18.43541 z m 13.50489,21.0454 c -1.65703,1.11855 -3.47986,2.19564 -5.42701,3.14853 0.82832,1.24285 1.73997,2.44423 2.40279,3.8942 1.65712,-1.24284 3.5628,-2.31993 5.46839,-3.35565 -0.82833,-1.24286 -1.78136,-2.40277 -2.44427,-3.68708 z M 291.61453,802.33314 c -6.58693,-4.97128 -13.63009,1.90569 -17.35789,8.11973 -3.1899,6.58691 -11.39235,8.57543 -15.36938,1.61562 -0.7042,-1.20137 -5.5513,-5.59266 -11.68292,-4.51557 -3.56279,0.45603 -6.13121,2.3614 -7.3327,4.10132 10.85359,5.71697 16.40552,17.89665 15.28665,30.28378 9.07262,-1.4085 15.07985,-0.16545 23.3648,8.07836 3.0656,-1.69857 6.42127,-2.85848 9.94258,-3.39702 -3.27272,-10.81223 -3.43849,-20.92131 3.14843,-27.42455 -2.85848,-4.68134 -3.43849,-10.81223 0.0424,-16.90292 z m 4.55704,-334.77066 c 24.31823,-15.28665 0.78693,-59.5314 -23.73811,-45.32119 -4.26698,5.46836 -5.21988,15.20392 -1.11856,20.42391 6.04838,7.45689 12.84211,14.45837 12.88347,14.54109 5.79989,5.63413 -0.58012,15.82541 -8.20266,13.09133 -1.65709,-0.53875 -7.37405,-1.73992 -10.85358,-0.12408 -5.05412,2.31994 -5.92408,6.87698 -6.04838,7.7884 0.66284,9.27975 -2.40276,20.05061 -9.52833,28.04603 21.08676,11.06146 47.84847,-7.91259 43.24996,-28.50206 -0.62148,-3.64561 -0.0424,-7.82977 3.39702,-9.85975 z m 442.94593,45.36256 c 9.0311,-1.6571 17.56471,-3.35566 25.76796,-5.13705 -4.5984,-8.03689 -6.21415,-17.35789 -5.17836,-25.39468 -0.0848,-0.911 -0.82833,-6.2555 -6.54565,-9.23827 -3.9355,-2.02999 -10.68813,-0.86964 -12.30435,-0.45604 -3.52133,0.99373 -7.24974,-0.62147 -9.03119,-3.81137 -1.78136,-3.19 -1.16002,-7.16693 1.49133,-9.65263 0.0848,-0.0848 7.78842,-7.33269 14.74795,-15.07984 5.13707,-5.92409 4.5984,-16.61233 -0.28956,-23.11663 -26.3481,-17.3579 -54.9742,30.73874 -28.79161,48.88462 2.36141,1.65709 3.60418,4.51557 3.27277,7.37405 -2.07138,11.76565 -3.10707,23.69675 16.86053,35.62784 z m 62.14138,-60.15287 c -3.39701,4.34992 -4.34994,10.68814 -3.14855,16.86049 0.66281,3.27273 -0.74557,6.58692 -3.5628,8.32695 -5.55124,3.56279 -8.28544,-1.36714 -13.63007,-2.11281 -9.56968,3.93557 -5.92412,21.16947 0.86961,28.00467 21.00404,-5.17841 38.48609,-10.81223 51.94961,-16.57097 5.55133,-13.50494 -19.88512,-51.1213 -32.47912,-34.55033 z m -543.48529,-1.90569 c -3.72844,2.60989 -8.69973,4.76417 -13.42222,5.55129 2.15418,0.66285 4.55704,1.90569 6.95981,4.10133 2.40276,-2.31993 5.88271,-4.51557 9.40404,-5.71695 -1.03616,-1.24285 -2.11281,-2.52706 -2.94131,-3.93557 z m 499.45154,6.83551 c 4.18424,1.36715 8.28553,4.39127 10.97882,7.37405 4.72263,-3.97703 8.16111,-5.05412 12.96716,-5.01275 -6.62831,-0.41467 -14.33426,-3.47986 -19.51177,-7.70548 -1.24287,1.94705 -2.85852,3.64561 -4.43279,5.34418 z m 41.6762,-23.03391 c -0.16551,-17.2338 -22.37113,-25.27059 -34.92366,-17.39925 2.7342,5.50983 2.8999,11.4337 3.60409,16.65369 -0.70419,6.29696 17.27516,13.75416 20.96266,9.27974 2.85852,-3.81138 6.37985,-6.71122 10.35691,-8.53407 z M 256.48715,417.76516 c -10.68814,-6.95981 -30.24241,-1.07708 -31.23614,14.0437 8.32695,3.76991 6.50409,12.30441 18.51812,8.36831 12.92589,-3.7699 7.70547,-13.46358 12.71802,-22.41243 z m -60.02879,71.79338 c 16.57096,17.44062 48.26314,16.6537 46.77202,-11.26826 -0.45603,-2.48569 -1.15991,-5.67559 -3.64561,-6.75268 -5.01276,0.0848 -7.99554,5.01276 -13.46358,1.07709 -2.69283,-1.90569 -3.93557,-5.21988 -3.14854,-8.40978 2.40276,-7.91259 -1.36714,-21.91504 -11.06146,-18.72492 -15.07984,6.1312 -30.44921,29.28898 -15.45209,44.07824 z m 614.03257,-71.29705 c 2.52702,4.51558 4.10129,9.73546 4.22562,15.32801 18.93275,5.67561 32.93513,25.35332 35.33726,45.48771 2.56849,-1.57427 4.80557,-3.14843 6.7941,-4.68133 -1.57427,-24.93971 -10.39829,-55.18106 -46.35735,-56.17585 z m -667.85507,56.25857 c 7.6641,6.00702 19.92652,12.09655 36.33204,17.97937 -9.52833,-15.53482 -3.02424,-35.25453 8.07836,-47.97255 -24.73184,-6.58693 -44.74214,4.14268 -44.41019,30.03454 z m 111.72808,317.46262 c 3.93557,0.74556 7.49836,2.3614 10.48113,4.30845 6.71122,-10.68814 28.99946,-16.90292 38.56873,-4.7227 16.44688,-10.10823 41.13736,-4.14269 51.66005,11.30962 C 343.47365,764.0601 270.31322,746.12209 254.4051,791.9831 Z"
     id="path1-6"
     style="fill:url(#linearGradient8);stroke-width:10.6054;filter:url(#filter16)" /></svg>
